<svg fill="#EC5D57" xmlns="http://www.w3.org/2000/svg" xmlns:xlink="http://www.w3.org/1999/xlink" version="1.1" x="0px" y="0px" viewBox="0 0 512 512" enable-background="new 0 0 512 512" xml:space="preserve">
	<g>
		<path d="M481.113,151.592l-23.577-47.169c-5.25-10.492-9.546-28.678-9.546-40.412V21.349c0-11.733-9.594-21.334-21.328-21.334   H85.338c-11.734,0-21.328,9.601-21.328,21.334v42.654c0,11.733-4.296,29.92-9.53,40.412l-23.593,47.177   c-3.75,7.484-2.625,11.843,2.156,11.843c1.906,0,4.422-0.703,7.438-2.188l4.594-2.258c5.172-2.554,12.093-4.148,19.123-4.664V256   v21.341v213.303c0,11.781,9.563,21.342,21.328,21.342H426.85c11.781,0,21.328-9.561,21.328-21.342v-336.49   c6.999,0.547,13.904,2.172,19.061,4.757l4.359,2.188c3.047,1.531,5.563,2.25,7.484,2.25   C483.754,163.349,484.832,159.037,481.113,151.592z M85.338,21.38c0.016-0.008,0.031-0.023,0.047-0.031h341.23   c0.016,0.008,0.031,0.023,0.047,0.039v42.623h-64.98c-2.625-12.429-11.28-21.335-34.467-21.335   c-15.249,0-33.811,3.867-48.138,10.054c-5.828-6.187-14.093-10.054-23.265-10.054c-9.125,0-17.343,3.82-23.17,9.937   c-14.281-6.117-32.702-9.937-47.873-9.937c-23.171,0-31.826,8.906-34.451,21.335h-64.98v-0.008V21.38z M287.701,72.237   c2.016-0.867,4.328-1.75,6.953-2.625c10.563-3.508,22.732-5.601,32.561-5.601c8.984,0,12.438,1.789,12.859,2.265   c0.016,0.016,1.25,1.594,1.25,8.398c0,6.804-1.234,8.382-1.25,8.398c-0.422,0.477-3.875,2.273-12.859,2.273   c-9.828,0-21.998-2.093-32.561-5.601c-2.625-0.875-4.938-1.766-6.953-2.633c0.063-0.805,0.109-1.617,0.109-2.437   C287.811,73.854,287.764,73.042,287.701,72.237z M266.469,74.674c0,5.882-4.781,10.671-10.656,10.671   c-5.891,0-10.672-4.789-10.672-10.671c0-5.883,4.781-10.664,10.672-10.664C261.688,64.011,266.469,68.792,266.469,74.674z    M223.924,77.268c-1.922,0.82-4.109,1.648-6.594,2.477c-10.547,3.508-22.717,5.601-32.561,5.601   c-8.984,0-12.422-1.796-12.844-2.273c-0.016-0.016-1.25-1.594-1.25-8.398c0-6.805,1.234-8.383,1.25-8.398   c0.422-0.477,3.859-2.265,12.844-2.265c9.844,0,22.014,2.093,32.561,5.601c2.484,0.82,4.672,1.656,6.594,2.469   c-0.063,0.859-0.109,1.719-0.109,2.594C223.814,75.549,223.861,76.416,223.924,77.268z M73.541,113.953   c3.906-7.781,7.234-18.257,9.359-28.608h67.418c2.625,12.421,11.28,21.327,34.451,21.327c15.171,0,33.592-3.813,47.873-9.937   c5.827,6.125,14.045,9.937,23.17,9.937c9.172,0,17.437-3.867,23.265-10.046c14.327,6.187,32.889,10.046,48.138,10.046   c23.187,0,31.842-8.906,34.467-21.327H429.1c2.125,10.359,5.453,20.835,9.344,28.616l9.406,18.796   c-1.625-0.094-3.25-0.141-4.859-0.141c-7.938,0-15.469,1.109-21.78,3.211l-23.702,7.875c-2.453,0.813-7.266,1.68-13.468,1.68   c-6.233,0-11.077-0.875-13.546-1.695l-23.515-7.835c-9.608-3.211-19.983-3.883-26.983-3.883c-6.999,0-17.373,0.672-26.982,3.883   l-23.529,7.835c-2.438,0.82-7.266,1.688-13.484,1.688s-11.047-0.867-13.499-1.688l-23.515-7.835   c-9.609-3.211-19.983-3.883-26.982-3.883c-7,0-17.375,0.672-26.983,3.883l-23.53,7.835c-2.453,0.828-7.328,1.703-13.593,1.703   c-6.187,0-10.999-0.859-13.437-1.672l-23.312-7.71c-6.343-2.094-13.921-3.203-21.921-3.203c-1.719,0-3.453,0.047-5.188,0.148   L73.541,113.953z M85.525,156.623l22.232,7.351c5.547,1.828,12.844,2.75,20.14,2.75c7.374,0,14.749-0.937,20.343-2.796   l23.529-7.843c5.563-1.852,12.891-2.781,20.234-2.781c7.327,0,14.67,0.93,20.232,2.781l23.53,7.843   c5.563,1.852,12.89,2.781,20.233,2.781s14.671-0.929,20.233-2.781l23.53-7.843c5.563-1.852,12.89-2.781,20.232-2.781   c7.344,0,14.672,0.93,20.234,2.781l23.529,7.843c5.578,1.859,12.922,2.789,20.28,2.789c7.312,0,14.64-0.921,20.202-2.773   l22.607-7.515V256h-10.858c0-5.891-4.78-10.664-10.671-10.664S394.664,250.11,394.664,256h-10.671v-42.662H128.007V256H85.525   V156.623z M149.334,405.336v-170.67h213.332v170.67H149.334z M309.325,490.645c0-5.875-4.765-10.656-10.655-10.656   s-10.672,4.781-10.672,10.656H128.007H85.525v-63.996c5.812-0.094,10.483-4.828,10.483-10.656s-4.672-10.563-10.483-10.656V277.342   h42.481v149.307h104.433c0,5.904,4.78,10.686,10.67,10.686c5.891,0,10.672-4.781,10.672-10.686h130.212V362.65   c5.89,0,10.655-4.766,10.655-10.656c0-5.889-4.766-10.654-10.655-10.654v-63.998h42.856v213.303H309.325z"></path>
		<path d="M106.68,298.654c-5.891,0-10.671,4.781-10.671,10.688c0,5.873,4.78,10.654,10.671,10.654s10.656-4.781,10.656-10.654   C117.336,303.436,112.57,298.654,106.68,298.654z"></path>
		<path d="M394.664,447.99c-5.891,0-10.671,4.781-10.671,10.656c0,5.906,4.78,10.686,10.671,10.686s10.656-4.779,10.656-10.686   C405.32,452.771,400.555,447.99,394.664,447.99z"></path>
		<path d="M138.678,479.988c0-5.891-4.781-10.656-10.671-10.656s-10.671,4.766-10.671,10.656s4.781,10.656,10.671,10.656   S138.678,485.879,138.678,479.988z"></path>
		<!--<path d="M313.31,289.451c-3.672-4.609-10.39-5.344-14.983-1.672l0,0l0,0l0,0c4.594-3.672,5.344-10.375,1.656-14.982   c-3.672-4.602-10.391-5.344-14.984-1.664c-0.563,0.453-1.078,0.961-1.531,1.492c-7.327-5.75-15.186-9.266-23.732-9.266   c-8.203,0-17.03,3.25-26.561,10.891c-26.5,21.186-48.514,68.184-30.827,90.307c6.78,8.484,18.437,12.078,31.717,12.078   c21.312,0,46.825-9.25,63.169-22.313c19.451-15.561,20.467-32.217,12.624-48.73c0.625-0.313,1.219-0.688,1.781-1.156   C316.246,300.764,316.996,294.061,313.31,289.451z M283.904,337.652c-12.78,10.217-33.748,17.654-49.841,17.654   c-8.702,0-13.483-2.109-15.062-4.078c-2.391-2.984-2.75-11.92,2.094-24.514c5.234-13.594,15.202-27.654,25.404-35.811   c3.531-2.844,8.703-6.219,13.234-6.219l0,0c4.109,0,9.156,2.906,14.827,8.484c-4.203,3.75-4.78,10.156-1.234,14.609   c3.563,4.436,9.952,5.279,14.53,2c3.844,6.217,5.016,10.482,5.219,13.186C293.217,324.871,293.576,329.918,283.904,337.652z"></path>-->
		<g transform="translate(135, 200) scale(2.4, 2.4)">
			<path d="M90.874,66.807l-6.648-11.952c-0.187-0.336-0.549-0.532-0.932-0.512   c-0.384,0.022-0.72,0.262-0.866,0.616l-2.359,5.712l-3.301-3.53c-0.082-0.087-0.181-0.152-0.287-0.205   c-0.03-0.015-0.06-0.027-0.091-0.039c-0.032-0.012-0.06-0.031-0.094-0.04l-9.646-2.583l-5.815-10.78   c-0.178-0.329-0.474-0.548-0.896-0.525c-0.018,0-0.034,0.007-0.052,0.008c-0.035,0.002-0.068,0.01-0.103,0.016   c-0.08,0.014-0.156,0.037-0.23,0.07c-0.028,0.012-0.058,0.011-0.086,0.026c-0.014,0.007-0.021,0.021-0.034,0.029   c-0.083,0.051-0.158,0.113-0.223,0.186c-0.047,0.051-0.08,0.108-0.114,0.167c-0.011,0.018-0.026,0.033-0.035,0.052l-2.792,5.602   V38.938c0-0.077-0.009-0.154-0.026-0.229l-2.07-8.792c-0.109-0.465-0.506-0.793-1.01-0.771c-0.477,0.017-0.875,0.369-0.951,0.841   l-0.635,3.948L43.22,20.481c-0.158-0.254-0.42-0.424-0.716-0.464l-19.473-2.616c-0.416-0.054-0.826,0.155-1.021,0.53l-3.622,6.972   c-0.175-0.151-0.4-0.244-0.645-0.245c-0.001,0-0.003,0-0.005,0c-0.469,0-0.875,0.326-0.977,0.784l-0.998,4.512l-2.214,4.262   l-0.62-3.709c-0.079-0.471-0.478-0.82-0.955-0.835c-0.483-0.034-0.897,0.309-1.006,0.773l-1.944,8.356   C9.009,38.876,9,38.952,9,39.028v13.732c0,0.553,0.448,1,1,1s1-0.447,1-1V39.143l0.783-3.366l0.474,2.834   c0.059,0.352,0.3,0.646,0.633,0.771c0.332,0.125,0.708,0.065,0.985-0.16l2.498-2.035c0.233-0.19,0.368-0.475,0.368-0.775v-1.61   l0.963-4.356c0.003-0.015,0.01-0.029,0.013-0.044l0.948,4.493v1.131c0,0.507,0.379,0.934,0.883,0.993l32.188,3.803   c0.281,0.034,0.568-0.056,0.781-0.246c0.214-0.19,0.336-0.462,0.336-0.748v-1.246l0.529-3.289l0.886,3.761v13.271   c0,0.187,0.065,0.353,0.155,0.503l-2.409,4.833l-24.017,0.566c-0.229,0.006-0.45,0.09-0.625,0.238l-5.341,4.542   c-0.42,0.357-0.472,0.989-0.114,1.409c0.357,0.422,0.988,0.473,1.41,0.114l5.071-4.313l23.254-0.548v21.937c0,0.553,0.447,1,1,1   s1-0.447,1-1V58.856l6.332-12.705l8.017,14.832v17.501c0,0.553,0.447,1,1,1s1-0.447,1-1V63.455l12.532,3.164v11.283   c0,0.553,0.447,1,1,1s1-0.447,1-1V65.84c0-0.027-0.013-0.051-0.015-0.078c-0.005-0.062-0.018-0.118-0.034-0.177   c-0.017-0.064-0.037-0.123-0.066-0.182c-0.027-0.055-0.06-0.104-0.097-0.153c-0.022-0.029-0.033-0.065-0.058-0.092l-2.694-2.882   l1.916-4.638L89,67.553v10.931c0,0.553,0.447,1,1,1s1-0.447,1-1v-11.19C91,67.123,90.957,66.955,90.874,66.807z M50.853,38.501   v0.201l-30.188-3.566V34.79c0-0.069-0.007-0.139-0.021-0.207l-1.452-6.886l4.271-8.22l18.309,2.459l9.32,15.009l-0.225,1.398   C50.857,38.395,50.853,38.448,50.853,38.501z M69.881,60.254l-1.923-3.559l7.545,2.02l4.167,4.457   c0.001,0.001,0.002,0.002,0.003,0.003l0.807,0.863l-10.478-2.645v-0.662C70.001,60.563,69.96,60.4,69.881,60.254z"></path>
		</g>
	</g>
</svg>